<svg xmlns="http://www.w3.org/2000/svg" viewBox="0 0 1600 900" preserveAspectRatio="xMidYMid slice">
  <defs>
    <linearGradient id="bg4" x1="0%" y1="0%" x2="0%" y2="100%">
      <stop offset="0%" stop-color="#15161A"/>
      <stop offset="100%" stop-color="#0A0A0B"/>
    </linearGradient>
    <filter id="gn4"><feTurbulence type="fractalNoise" baseFrequency="0.85" numOctaves="2" stitchTiles="stitch"/><feColorMatrix values="0 0 0 0 0  0 0 0 0 0  0 0 0 0 0  0 0 0 0.18 0"/></filter>
    <filter id="bl4"><feGaussianBlur stdDeviation="40"/></filter>
  </defs>
  <rect width="1600" height="900" fill="url(#bg4)"/>
  <!-- Architecture detail - column with strong shadow -->
  <rect x="600" y="0" width="400" height="900" fill="#2A2B2F"/>
  <rect x="600" y="0" width="400" height="900" fill="#1E1F22" opacity="0.5"/>
  <!-- Light edge -->
  <rect x="600" y="0" width="8" height="900" fill="#B11226" opacity="0.6"/>
  <rect x="608" y="0" width="20" height="900" fill="#FFFFFF" opacity="0.15"/>
  <!-- Shadow casts -->
  <rect x="0" y="0" width="600" height="900" fill="#0A0A0B"/>
  <rect x="1000" y="0" width="600" height="900" fill="#1A1B1F"/>
  <!-- Reveal patterns on column -->
  <g opacity="0.3" fill="#0F0F10">
    <rect x="650" y="100" width="300" height="40"/>
    <rect x="650" y="280" width="300" height="40"/>
    <rect x="650" y="460" width="300" height="40"/>
    <rect x="650" y="640" width="300" height="40"/>
    <rect x="650" y="820" width="300" height="40"/>
  </g>
  <!-- Light source bleed -->
  <ellipse cx="600" cy="200" rx="80" ry="200" fill="#B11226" opacity="0.4" filter="url(#bl4)"/>
  <ellipse cx="600" cy="700" rx="60" ry="150" fill="#FFB060" opacity="0.2" filter="url(#bl4)"/>
  <rect width="1600" height="900" filter="url(#gn4)" opacity="0.5"/>
</svg>