<svg xmlns="http://www.w3.org/2000/svg" viewBox="0 0 1600 900" preserveAspectRatio="xMidYMid slice">
  <defs>
    <linearGradient id="sky3" x1="0%" y1="0%" x2="0%" y2="100%">
      <stop offset="0%" stop-color="#1A1A20"/>
      <stop offset="100%" stop-color="#0A0A0B"/>
    </linearGradient>
    <linearGradient id="floor3" x1="0%" y1="0%" x2="0%" y2="100%">
      <stop offset="0%" stop-color="#2A2B2F"/>
      <stop offset="100%" stop-color="#15161A"/>
    </linearGradient>
    <filter id="gn3"><feTurbulence type="fractalNoise" baseFrequency="0.85" numOctaves="2" stitchTiles="stitch"/><feColorMatrix values="0 0 0 0 0  0 0 0 0 0  0 0 0 0 0  0 0 0 0.18 0"/></filter>
    <filter id="bl3"><feGaussianBlur stdDeviation="30"/></filter>
  </defs>
  <rect width="1600" height="900" fill="url(#sky3)"/>
  <!-- Interior - concrete corridor perspective -->
  <polygon points="0,0 0,900 400,700 400,200" fill="#1E1F22"/>
  <polygon points="1600,0 1600,900 1200,700 1200,200" fill="#1E1F22"/>
  <polygon points="0,900 1600,900 1200,700 400,700" fill="url(#floor3)"/>
  <polygon points="0,0 1600,0 1200,200 400,200" fill="#0F0F10"/>
  <!-- End wall with opening -->
  <rect x="400" y="200" width="800" height="500" fill="#15161A"/>
  <!-- Doorway with light -->
  <rect x="700" y="350" width="200" height="350" fill="#FFB060" opacity="0.4"/>
  <rect x="700" y="350" width="200" height="350" fill="#B11226" opacity="0.3"/>
  <!-- Light cast on floor -->
  <polygon points="700,700 900,700 1000,900 600,900" fill="#FFB060" opacity="0.15" filter="url(#bl3)"/>
  <!-- Side wall textures -->
  <g opacity="0.3">
    <line x1="50" y1="200" x2="380" y2="220" stroke="#3A3B3F" stroke-width="2"/>
    <line x1="100" y1="400" x2="380" y2="380" stroke="#3A3B3F" stroke-width="2"/>
    <line x1="80" y1="600" x2="380" y2="550" stroke="#3A3B3F" stroke-width="2"/>
    <line x1="1220" y1="220" x2="1550" y2="200" stroke="#3A3B3F" stroke-width="2"/>
    <line x1="1220" y1="380" x2="1500" y2="400" stroke="#3A3B3F" stroke-width="2"/>
    <line x1="1220" y1="550" x2="1520" y2="600" stroke="#3A3B3F" stroke-width="2"/>
  </g>
  <rect width="1600" height="900" filter="url(#gn3)" opacity="0.5"/>
</svg>